<svg width="1024" height="1024" viewBox="0 0 1024 1024" xmlns="http://www.w3.org/2000/svg">
  <defs>
    <linearGradient id="bg" x1="0" y1="0" x2="1" y2="1">
      <stop offset="0" stop-color="#0C3E36"/>
      <stop offset="0.55" stop-color="#0F5A47"/>
      <stop offset="1" stop-color="#082823"/>
    </linearGradient>
    <radialGradient id="glow" cx="0.5" cy="0.42" r="0.52">
      <stop offset="0" stop-color="#F6D77C" stop-opacity="0.30"/>
      <stop offset="1" stop-color="#F6D77C" stop-opacity="0"/>
    </radialGradient>
    <linearGradient id="gold" x1="0" y1="0" x2="1" y2="1">
      <stop offset="0" stop-color="#F7D67E"/>
      <stop offset="1" stop-color="#C69A31"/>
    </linearGradient>
    <filter id="softShadow" x="-30%" y="-30%" width="160%" height="160%">
      <feDropShadow dx="0" dy="6" stdDeviation="12" flood-color="#000000" flood-opacity="0.3"/>
    </filter>
  </defs>

  <rect x="0" y="0" width="1024" height="1024" rx="220" fill="url(#bg)"/>
  <rect x="16" y="16" width="992" height="992" rx="204" fill="none" stroke="#D8B25A" stroke-opacity="0.35" stroke-width="4"/>
  <circle cx="512" cy="430" r="300" fill="url(#glow)"/>

  <!-- Corner ornaments -->
  <g stroke="#D8B25A" stroke-opacity="0.28" fill="none">
    <path d="M120 220c60-80 140-120 220-120" stroke-width="6"/>
    <path d="M904 220c-60-80-140-120-220-120" stroke-width="6"/>
    <path d="M120 804c60 80 140 120 220 120" stroke-width="6"/>
    <path d="M904 804c-60 80-140 120-220 120" stroke-width="6"/>
  </g>

  <!-- Main symbol -->
  <g filter="url(#softShadow)">
    <!-- Crescent -->
    <path d="M595 220c110 35 190 138 190 260 0 151-122 273-273 273-95 0-179-48-228-122 42 22 90 35 141 35 166 0 300-134 300-300 0-52-13-100-36-146 1 0 3 0 6 0z" fill="url(#gold)"/>

    <!-- Quran pages -->
    <g transform="translate(512 600)">
      <path d="M-208 0c63-72 127-108 192-108v212c-76 0-138 21-192 63z" fill="#F8F2E3" stroke="#D8B25A" stroke-width="8"/>
      <path d="M208 0c-63-72-127-108-192-108v212c76 0 138 21 192 63z" fill="#F8F2E3" stroke="#D8B25A" stroke-width="8"/>
      <line x1="0" y1="-108" x2="0" y2="145" stroke="#C69A31" stroke-width="7"/>
      <path d="M-150 20c35-14 70-22 106-24M-150 58c35-14 70-22 106-24M44-4c36 2 71 10 106 24M44 34c36 2 71 10 106 24" stroke="#B58B2E" stroke-opacity="0.65" stroke-width="5" stroke-linecap="round"/>
    </g>
  </g>

  <!-- Eight-point star -->
  <g transform="translate(512 248)">
    <path d="M0 -40L12 -12L40 0L12 12L0 40L-12 12L-40 0L-12 -12Z" fill="#F7D67E" fill-opacity="0.9"/>
    <circle cx="0" cy="0" r="8" fill="#0F5A47"/>
  </g>
</svg>
